<?xml version="1.0" encoding="UTF-8"?>
<svg id="Layer_1" data-name="Layer 1" xmlns="http://www.w3.org/2000/svg" viewBox="0 0 1410.12 1252">
  <defs>
    <style>
      .cls-1 {
        fill: #ea5c9d;
      }

      .cls-2 {
        fill: #5e3e50;
      }

      .cls-3 {
        fill: none;
        stroke: #fff;
        stroke-linecap: round;
        stroke-linejoin: round;
        stroke-width: 180px;
      }
    </style>
  </defs>
  <g>
    <path class="cls-3" d="M1214.95,195.17c-140.23-140.23-367.59-140.23-507.82,0-.69,.69-1.33,1.42-2.01,2.12l-.05-.05-.05,.05c-.69-.7-1.32-1.43-2.01-2.12-140.23-140.23-367.59-140.23-507.82,0-140.23,140.23-140.23,367.59,0,507.83,.69,.69,1.42,1.33,2.12,2.01l-.05,.05,420.95,420.95c47.98,47.98,125.77,47.98,173.74,0l420.95-420.95-.05-.05c.7-.68,1.42-1.32,2.12-2.01,140.23-140.23,140.23-367.59,0-507.83Z"/>
    <path class="cls-2" d="M1214.95,195.17c-140.23-140.23-367.59-140.23-507.82,0-.69,.69-1.33,1.42-2.01,2.12l-.05-.05-.05,.05c-.69-.7-1.32-1.43-2.01-2.12-140.23-140.23-367.59-140.23-507.82,0-140.23,140.23-140.23,367.59,0,507.83,.69,.69,1.42,1.33,2.12,2.01l-.05,.05,420.95,420.95c47.98,47.98,125.77,47.98,173.74,0l420.95-420.95-.05-.05c.7-.68,1.42-1.32,2.12-2.01,140.23-140.23,140.23-367.59,0-507.83Z"/>
  </g>
  <path class="cls-1" d="M705.06,197.24v964.76c-31.44,0-62.88-12-86.87-35.98L197.24,705.06l.05-.05c-.7-.68-1.43-1.32-2.12-2.01-140.23-140.23-140.23-367.59,0-507.83,140.23-140.23,367.59-140.23,507.83,0,.69,.7,1.32,1.42,2.01,2.12l.05-.05Z"/>
  <path class="cls-2" d="M1214.95,703c-.69,.69-1.42,1.33-2.12,2.01l.05,.05-420.95,420.96c-23.99,23.98-55.43,35.98-86.87,35.98V197.24l.05,.05c.69-.7,1.32-1.42,2.01-2.12,140.24-140.23,367.6-140.23,507.83,0,140.23,140.24,140.23,367.6,0,507.83Z"/>
</svg>